<?xml version="1.0" encoding="iso-8859-1"?>
<!-- Generator: Adobe Illustrator 16.0.0, SVG Export Plug-In . SVG Version: 6.00 Build 0)  -->
<!DOCTYPE svg PUBLIC "-//W3C//DTD SVG 1.1//EN" "http://www.w3.org/Graphics/SVG/1.1/DTD/svg11.dtd">
<svg version="1.1" id="Capa_1" xmlns="http://www.w3.org/2000/svg" xmlns:xlink="http://www.w3.org/1999/xlink" x="0px" y="0px"
	 width="422.688px" height="422.688px" viewBox="0 0 422.688 422.688" style="enable-background:new 0 0 422.688 422.688;"
	 xml:space="preserve">
<g>
	<g>
		<path d="M294.318,49.615c-66.142-66.153-173.765-66.153-239.916,0c-66.156,66.142-66.156,173.77,0,239.911
			c63.874,63.883,166.428,66.058,232.972,6.562l13.44,13.445c-3.351,8.588-1.596,18.678,5.325,25.599l70.973,70.978
			c9.334,9.334,24.465,9.329,33.79,0c9.334-9.315,9.334-24.446,0-33.78l-70.973-70.973c-6.922-6.912-17.03-8.667-25.599-5.315
			l-13.451-13.46C360.399,216.039,358.206,113.486,294.318,49.615z M74.671,269.262c-54.969-54.969-54.969-144.406,0-199.375
			c54.969-54.974,144.418-54.969,199.387,0s54.969,144.411,0,199.38S129.641,324.23,74.671,269.262z"/>
		<g>
			<path d="M160.471,177.001l-4.033-60.479c-0.761-11.787-1.139-20.246-1.139-25.382c0-6.986,1.83-12.44,5.493-16.351
				c3.659-3.909,8.476-5.871,14.454-5.871c7.243,0,12.078,2.504,14.52,7.511c2.445,5.008,3.668,12.23,3.668,21.653
				c0,5.559-0.299,11.198-0.892,16.923l-5.423,62.25c-0.588,7.407-1.853,13.088-3.79,17.046c-1.937,3.958-5.134,5.934-9.596,5.934
				c-4.545,0-7.701-1.916-9.469-5.743C162.492,190.659,161.236,184.83,160.471,177.001z M174.491,260.082
				c-5.134,0-9.619-1.666-13.446-4.999c-3.832-3.313-5.745-7.971-5.745-13.945c0-5.217,1.83-9.655,5.493-13.314
				c3.664-3.673,8.144-5.488,13.441-5.488c5.302,0,9.833,1.834,13.581,5.488c3.738,3.659,5.619,8.098,5.619,13.314
				c0,5.891-1.895,10.521-5.685,13.89C183.965,258.406,179.541,260.082,174.491,260.082z"/>
		</g>
		<g>
			<rect x="88.346" y="361.885" width="172.047" height="19.116"/>
		</g>
		<g>
			<rect x="126.574" y="403.571" width="95.582" height="19.116"/>
		</g>
	</g>
</g>
<g>
</g>
<g>
</g>
<g>
</g>
<g>
</g>
<g>
</g>
<g>
</g>
<g>
</g>
<g>
</g>
<g>
</g>
<g>
</g>
<g>
</g>
<g>
</g>
<g>
</g>
<g>
</g>
<g>
</g>
</svg>
