<svg height="512pt" viewBox="0 -25 512 512" width="512pt" xmlns="http://www.w3.org/2000/svg"><path d="m512 0h-511.9882812l-.0117188 462.542969h512zm-30 432.542969h-452v-310.738281h452zm-451.984375-340.738281v-61.804688h451.984375v61.804688zm0 0"/><path d="m256 330.503906c27.476562 0 49.832031-22.351562 49.832031-49.832031 0-27.476563-22.355469-49.828125-49.832031-49.828125s-49.832031 22.351562-49.832031 49.828125 22.355469 49.832031 49.832031 49.832031zm0-69.660156c10.933594 0 19.832031 8.894531 19.832031 19.828125s-8.898437 19.832031-19.832031 19.832031-19.832031-8.894531-19.832031-19.832031c0-10.933594 8.898437-19.828125 19.832031-19.828125zm0 0"/><path d="m173.683594 378.605469 22.914062-13.230469c4.976563 3.5 10.238282 6.542969 15.75 9.105469v26.445312h87.308594v-26.445312c5.507812-2.5625 10.769531-5.605469 15.746094-9.105469l22.914062 13.230469 43.65625-75.613281-22.910156-13.222657c.273438-3.035156.40625-6.074219.40625-9.097656s-.136719-6.0625-.40625-9.09375l22.910156-13.226563-43.65625-75.609374-22.910156 13.226562c-4.980469-3.5-10.242188-6.542969-15.75-9.105469v-26.445312h-87.308594v26.445312c-5.511718 2.5625-10.773437 5.605469-15.75 9.105469l-22.914062-13.226562-43.652344 75.609374 22.90625 13.226563c-.269531 3.03125-.40625 6.070313-.40625 9.09375s.136719 6.0625.40625 9.097656l-22.90625 13.222657zm10.226562-83.769531c-.914062-4.6875-1.378906-9.453126-1.378906-14.164063 0-4.707031.464844-9.472656 1.378906-14.160156l2.050782-10.507813-14.949219-8.632812 13.652343-23.648438 14.984376 8.652344 8.078124-7.050781c7.21875-6.304688 15.457032-11.066407 24.476563-14.15625l10.144531-3.472657v-17.273437h27.308594v17.273437l10.140625 3.472657c9.023437 3.089843 17.257813 7.851562 24.476563 14.15625l8.078124 7.050781 14.984376-8.652344 13.652343 23.648438-14.945312 8.632812 2.046875 10.507813c.914062 4.6875 1.378906 9.453125 1.378906 14.160156 0 4.710937-.464844 9.476563-1.378906 14.164063l-2.046875 10.507812 14.945312 8.632812-13.652343 23.648438-14.984376-8.652344-8.078124 7.054688c-7.21875 6.300781-15.453126 11.0625-24.476563 14.152344l-10.140625 3.46875v17.277343h-27.308594v-17.277343l-10.144531-3.472657c-9.019531-3.085937-17.257813-7.847656-24.476563-14.152343l-8.078124-7.050782-14.984376 8.648438-13.652343-23.648438 14.949219-8.628906zm0 0"/><path d="m51.511719 46.402344h30v30h-30zm0 0"/><path d="m101.515625 46.402344h30v30h-30zm0 0"/><path d="m151.519531 46.402344h30v30h-30zm0 0"/></svg>