<?xml version="1.0" encoding="iso-8859-1"?>
<!-- Generator: Adobe Illustrator 16.0.0, SVG Export Plug-In . SVG Version: 6.00 Build 0)  -->
<!DOCTYPE svg PUBLIC "-//W3C//DTD SVG 1.1//EN" "http://www.w3.org/Graphics/SVG/1.1/DTD/svg11.dtd">
<svg version="1.1" id="Capa_1" xmlns="http://www.w3.org/2000/svg" xmlns:xlink="http://www.w3.org/1999/xlink" x="0px" y="0px"
	 width="104px" height="104px" viewBox="0 0 104 104" style="enable-background:new 0 0 104 104;" xml:space="preserve">
<g>
	<path d="M98,66h-7.121c0-28.161-15.77-37.674-24.879-40.819v-5.848c0-3.313-2.686-6-6-6H42.666c-3.313,0-6,2.687-6,6v6.164
		c-9.207,3.447-24,13.227-24,40.503H6c-3.314,0-6,2.687-6,6v12.667c0,3.312,2.686,6,6,6h17.334c3.313,0,6-2.688,6-6V72
		c0-3.313-2.688-6-6-6h-6.668c0-23.872,11.848-32.916,20-36.319V32c0,3.313,2.688,6,6,6h6.668v28h-6.668c-3.313,0-6,2.687-6,6
		v12.667c0,3.312,2.688,6,6,6H60c3.314,0,6-2.688,6-6V72c0-3.313-2.686-6-6-6h-6.666V38H60c3.314,0,6-2.687,6-6v-2.673
		C74.148,32.438,86.879,41.255,86.879,66h-6.213c-3.312,0-6,2.687-6,6v12.667c0,3.312,2.688,6,6,6H98c3.314,0,6-2.688,6-6V72
		C104,68.687,101.314,66,98,66z"/>
</g>
<g>
</g>
<g>
</g>
<g>
</g>
<g>
</g>
<g>
</g>
<g>
</g>
<g>
</g>
<g>
</g>
<g>
</g>
<g>
</g>
<g>
</g>
<g>
</g>
<g>
</g>
<g>
</g>
<g>
</g>
</svg>
