<svg height="512pt" viewBox="-61 0 512 512" width="512pt" xmlns="http://www.w3.org/2000/svg"><path d="m195 361c74.4375 0 135-60.5625 135-135s-60.5625-135-135-135-135 60.5625-135 135 60.5625 135 135 135zm0-240c57.898438 0 105 47.101562 105 105s-47.101562 105-105 105-105-47.101562-105-105 47.101562-105 105-105zm0 0"/><path d="m195 271c24.8125 0 45-20.1875 45-45s-20.1875-45-45-45-45 20.1875-45 45 20.1875 45 45 45zm0-60c8.269531 0 15 6.730469 15 15s-6.730469 15-15 15-15-6.730469-15-15 6.730469-15 15-15zm0 0"/><path d="m390 0h-390v512h390zm-30 30v392h-330v-392zm-210 422v30h-30v-30zm30 0h30v30h-30zm60 0h30v30h-30zm-210 0h60v30h-60zm270 30v-30h60v30zm0 0"/><path d="m300 361h30v30h-30zm0 0"/><path d="m60 361h30v30h-30zm0 0"/><path d="m300 61h30v30h-30zm0 0"/><path d="m60 61h30v30h-30zm0 0"/></svg>