<?xml version="1.0" encoding="iso-8859-1"?>
<!-- Generator: Adobe Illustrator 19.0.0, SVG Export Plug-In . SVG Version: 6.00 Build 0)  -->
<svg version="1.1" id="Capa_1" xmlns="http://www.w3.org/2000/svg" xmlns:xlink="http://www.w3.org/1999/xlink" x="0px" y="0px"
	 viewBox="0 0 511.999 511.999" style="enable-background:new 0 0 511.999 511.999;" xml:space="preserve">
<g>
	<g>
		<path d="M366.271,109.228H145.725c-4.142,0-7.499,3.357-7.499,7.499s3.358,7.499,7.499,7.499h220.546
			c4.142,0,7.499-3.357,7.499-7.499S370.413,109.228,366.271,109.228z"/>
	</g>
</g>
<g>
	<g>
		<path d="M366.271,148.149H145.725c-4.142,0-7.499,3.357-7.499,7.499s3.358,7.499,7.499,7.499h220.546
			c4.142,0,7.499-3.357,7.499-7.499S370.413,148.149,366.271,148.149z"/>
	</g>
</g>
<g>
	<g>
		<path d="M249.208,187.068H145.725c-4.142,0-7.499,3.357-7.499,7.499c0,4.143,3.358,7.499,7.499,7.499h103.482
			c4.141,0,7.499-3.357,7.499-7.499C256.707,190.424,253.349,187.068,249.208,187.068z"/>
	</g>
</g>
<g>
	<g>
		<path d="M486.577,146.811l-42.953-29.246v-11.025c0-26.767-21.777-48.544-48.544-48.544h-38.946L283.464,8.52
			c-16.684-11.36-38.245-11.36-54.93,0l-72.606,49.434l0.029,0.043h-39.039c-26.767,0-48.544,21.777-48.544,48.544v11.024
			l-42.953,29.245C13.786,154.731,6.84,167.865,6.84,181.941v298.196c0,10.384,4.187,31.861,31.861,31.861h434.596
			c17.569,0,31.861-14.293,31.861-31.861V181.941C505.159,167.865,498.211,154.732,486.577,146.811z M236.975,20.916
			c11.558-7.866,26.493-7.866,38.048,0l54.463,37.081H182.514L236.975,20.916z M83.373,106.542
			c0-18.498,15.048-33.546,33.545-33.546h278.161c18.497,0,33.545,15.048,33.545,33.545v56.75c0,4.143,3.358,7.499,7.499,7.499
			s7.499-3.357,7.499-7.499v-27.58c0,0,37.048,25.401,38.172,26.489L295.923,274.696c-24.625,14.869-55.222,14.871-79.809,0.023
			L83.373,193.456V106.542z M68.375,135.709v48.563L31.04,161.417C31.927,160.628,68.375,135.709,68.375,135.709z M37.807,496.956
			l26.595-30.538c2.72-3.124,2.394-7.86-0.73-10.581c-3.123-2.72-7.86-2.392-10.581,0.73l-28.519,32.746
			c-1.723-2.644-2.735-5.792-2.735-9.177V181.941c0-2.7,0.404-5.343,1.156-7.864l180.1,110.256L75.547,430.784
			c-2.72,3.124-2.394,7.86,0.73,10.581c1.421,1.237,6.321,3.264,10.581-0.73l129.55-148.752c12.541,5.977,26.063,8.97,39.59,8.97
			c13.696,0,27.392-3.076,40.068-9.205l178.356,205.297C474.048,496.969,38.105,496.972,37.807,496.956z M490.16,480.137
			c0,3.318-0.977,6.405-2.638,9.017L309.367,284.09l179.948-108.911c0.554,2.186,0.846,4.453,0.846,6.762V480.137z"/>
	</g>
</g>
<g>
</g>
<g>
</g>
<g>
</g>
<g>
</g>
<g>
</g>
<g>
</g>
<g>
</g>
<g>
</g>
<g>
</g>
<g>
</g>
<g>
</g>
<g>
</g>
<g>
</g>
<g>
</g>
<g>
</g>
</svg>
