<?xml version="1.0" encoding="iso-8859-1"?>
<!-- Generator: Adobe Illustrator 19.0.0, SVG Export Plug-In . SVG Version: 6.00 Build 0)  -->
<svg version="1.1" id="Capa_1" xmlns="http://www.w3.org/2000/svg" xmlns:xlink="http://www.w3.org/1999/xlink" x="0px" y="0px"
	 viewBox="0 0 424 424" style="enable-background:new 0 0 424 424;" xml:space="preserve">
<g>
	<g>
		<path d="M212,126.56c-46.88,0-76,24-76,62.88c0,4.418,3.582,8,8,8h136c4.418,0,8-3.582,8-8C288,150.64,258.88,126.56,212,126.56z
			 M152.56,181.44c5.28-35.92,46.32-38.88,59.44-38.88s54.16,2.96,59.44,38.88H152.56z"/>
	</g>
</g>
<g>
	<g>
		<path d="M212,42.56c-20.987,0-38,17.013-38,38c0.044,20.969,17.031,37.956,38,38c20.987,0,38-17.013,38-38
			S232.987,42.56,212,42.56z M212,102.56c-12.15,0-22-9.85-22-22s9.85-22,22-22s22,9.85,22,22S224.15,102.56,212,102.56z"/>
	</g>
</g>
<g>
	<g>
		<path d="M76,310.56c-46.88,0-76,24-76,62.88c0,4.418,3.582,8,8,8h136c4.418,0,8-3.582,8-8C152,334.64,122.88,310.56,76,310.56z
			 M16.56,365.44c5.28-35.92,46.24-38.88,59.44-38.88s54.16,2.96,59.44,38.88H16.56z"/>
	</g>
</g>
<g>
	<g>
		<path d="M76,226.56c-20.987,0-38,17.013-38,38c0.044,20.969,17.031,37.956,38,38c20.987,0,38-17.013,38-38
			S96.987,226.56,76,226.56z M76,286.56c-12.15,0-22-9.85-22-22s9.85-22,22-22s22,9.85,22,22S88.15,286.56,76,286.56z"/>
	</g>
</g>
<g>
	<g>
		<path d="M348,310.56c-46.88,0-76,24-76,62.88c0,4.418,3.582,8,8,8h136c4.418,0,8-3.582,8-8C424,334.64,394.88,310.56,348,310.56z
			 M288.56,365.44c5.28-35.92,46.24-38.88,59.44-38.88s54.16,2.96,59.44,38.88H288.56z"/>
	</g>
</g>
<g>
	<g>
		<path d="M348,226.56c-20.987,0-38,17.013-38,38c0.044,20.969,17.031,37.956,38,38c20.987,0,38-17.013,38-38
			S368.987,226.56,348,226.56z M348,286.56c-12.15,0-22-9.85-22-22s9.85-22,22-22s22,9.85,22,22S360.15,286.56,348,286.56z"/>
	</g>
</g>
<g>
	<g>
		<path d="M253.36,296.72L220,263.2V216c0-4.418-3.582-8-8-8s-8,3.582-8,8v47.2l-33.36,33.36c-3.159,3.115-3.195,8.201-0.08,11.36
			s8.201,3.195,11.36,0.08L212,277.84L242.08,308c3.356,2.874,8.406,2.483,11.28-0.873
			C255.925,304.132,255.925,299.715,253.36,296.72z"/>
	</g>
</g>
<g>
</g>
<g>
</g>
<g>
</g>
<g>
</g>
<g>
</g>
<g>
</g>
<g>
</g>
<g>
</g>
<g>
</g>
<g>
</g>
<g>
</g>
<g>
</g>
<g>
</g>
<g>
</g>
<g>
</g>
</svg>
