<svg height="511pt" viewBox="0 1 511 511.999" width="511pt" xmlns="http://www.w3.org/2000/svg"><path d="m506.53125 12.519531c-.875-1.21875-1.839844-2.339843-2.875-3.390625-.046875-.050781-.085938-.105468-.136719-.152344-.042969-.042968-.09375-.082031-.136719-.125-5.792968-5.734374-13.851562-8.851562-23.179687-8.851562-5.292969 0-10.976563 1-16.886719 2.972656l-435.105468 145.03125c-23.019532 7.675782-27.214844 21.074219-27.664063 28.375-.453125 7.304688 2.058594 21.117188 23.949219 31.570313l109.257812 52.179687-48.894531 120.738282c-.121094.292968-.230469.589843-.328125.886718-5.433594 16.300782-3.246094 30.957032 6.007812 40.207032 5.910157 5.910156 14.023438 8.9375 23.363282 8.9375 5.28125 0 10.953125-.96875 16.839844-2.929688.300781-.101562.59375-.207031.886718-.328125l120.742188-48.894531 52.175781 109.253906c9.972656 20.878906 23.117187 24 30.066406 24 6.207031 0 21.542969-2.703125 29.878907-27.714844l145.035156-435.105468c4.777344-14.332032 3.714844-27.351563-2.996094-36.660157zm-473.542969 165.871094c1.1875-.601563 2.742188-1.265625 4.710938-1.921875l415.675781-138.5625-234.511719 234.515625c-8.554687-7.195313-17.5-13.25-25.984375-17.300781l-155.457031-74.246094c-1.871094-.894531-3.328125-1.742188-4.433594-2.484375zm87.855469 221.253906c-5.175781 1.660157-8.109375 1.375-9.046875 1.058594-.316406-.941406-.601563-3.871094 1.058594-9.046875l48.019531-118.574219 19.074219 9.113281c18.15625 8.667969 41.683593 32.199219 50.355469 50.351563l9.113281 19.078125zm215.1875 75.15625c-.65625 1.972657-1.320312 3.523438-1.921875 4.710938-.746094-1.105469-1.597656-2.5625-2.492187-4.441407l-74.242188-155.453124c-4.050781-8.484376-10.105469-17.425782-17.300781-25.984376l234.519531-234.515624zm0 0"/></svg>